<svg width="164" height="38" viewBox="0 0 164 38" fill="none" xmlns="http://www.w3.org/2000/svg">
<g filter="url(#filter0_dd_13001_399)">
<rect x="3.1" y="2.1" width="31.8" height="31.8" rx="7.9" fill="white"/>
<rect x="3.1" y="2.1" width="31.8" height="31.8" rx="7.9" fill="url(#paint0_linear_13001_399)"/>
<rect x="3.1" y="2.1" width="31.8" height="31.8" rx="7.9" stroke="#D0D5DD" stroke-width="0.2"/>
<path d="M18.3546 13.1828C22.7105 11.4504 27.4742 12.8185 29.6373 14.9133C30.106 15.3671 30.5041 15.8275 30.845 16.2852C31.0394 15.2107 31.0552 14.1405 30.8681 13.1055C30.1847 9.32649 26.6195 7.18561 23.4233 8.29149C20.2415 9.3924 19.0005 11.5321 19.0005 11.5321C19.0005 11.5321 17.7595 9.3924 14.5777 8.29149C11.3812 7.18561 7.81603 9.32672 7.1328 13.1055C6.62842 15.8944 7.58356 18.9392 9.61033 21.6298C10.0372 21.7732 10.4847 21.8809 10.9586 21.9431C13.7978 22.3163 14.8184 21.557 16.0178 21.0486C16.8142 20.7113 17.4134 21.0942 17.3843 21.3626C17.3392 21.7786 15.7693 22.4895 16.106 22.6388C17.4351 23.2285 19.0718 23.2334 20.3053 22.18C21.838 20.8712 22.4114 21.7659 22.4114 21.7659C22.4114 21.7659 21.6502 23.7076 19.3581 24.6717C17.4457 25.4761 15.4419 25.6743 13.6107 25.4683C15.19 26.5846 17.0035 27.5204 19.0005 28.1883C24.7099 26.2784 28.9276 22.1871 30.4145 17.9096C29.4072 16.9157 28.1716 16.2996 26.6988 16.0763C23.8674 15.6471 22.8322 16.3863 21.6228 16.8708C20.8198 17.1926 20.2285 16.7978 20.263 16.5299C20.3161 16.1148 21.8999 15.4351 21.5661 15.279C20.249 14.6633 18.6125 14.626 17.3585 15.6549C15.8003 16.9332 15.2446 16.0274 15.2446 16.0274C15.2446 16.0274 16.0438 14.1015 18.3546 13.1828ZM17.2709 18.5052H18.3709V17.4052H19.6296V18.5052H20.7296V19.7639H19.6296V20.8639H18.3709V19.7639H17.2709V18.5052Z" fill="url(#paint1_linear_13001_399)"/>
<path d="M17.2709 18.5052H18.3709V17.4052H19.6296V18.5052H20.7295V19.7639H19.6378C21.2597 20.5834 24.2383 21.8027 27.8177 22.3451C28.9956 20.9517 29.8813 19.4428 30.4143 17.9096C29.4069 16.9157 28.1713 16.2996 26.6986 16.0763C23.8672 15.647 22.8319 16.3863 21.6226 16.8708C20.8196 17.1926 20.2282 16.7978 20.2627 16.5299C20.3159 16.1148 21.8997 15.4351 21.5659 15.279C20.2488 14.6633 18.6123 14.626 17.3583 15.6548C15.8 16.9332 15.2443 16.0274 15.2443 16.0274C15.2443 16.0274 16.0438 14.1013 18.3543 13.1823C22.7102 11.4499 27.4739 12.818 29.637 14.9128C30.1057 15.3666 30.5038 15.8271 30.8447 16.2847C31.0392 15.2102 31.055 14.14 30.8679 13.105C30.1844 9.326 26.6192 7.18512 23.423 8.291C20.2412 9.39191 19.0002 11.5316 19.0002 11.5316C19.0002 11.5316 17.7592 9.39191 14.5774 8.291C12.7519 7.65927 10.8067 8.0883 9.34619 9.27521C10.0323 10.7442 10.836 12.1168 13.1254 14.8773C14.9868 17.1222 17.2709 18.5052 17.2709 18.5052Z" fill="url(#paint2_linear_13001_399)"/>
<path opacity="0.31" d="M27.277 9.64954C24.2712 8.13944 21.169 10.4892 20.1851 11.7299C21.882 11.3725 23.3668 11.1892 25.2457 11.5839C28.0252 12.1679 29.0654 13.1715 30.3064 14.6542C30.0871 11.9069 28.3519 10.1896 27.277 9.64954Z" fill="url(#paint3_linear_13001_399)"/>
</g>
<path d="M46.728 28V10.12H49.848L56.544 19.216H55.056L61.608 10.12H64.728V28H61.44V13.84L62.712 14.152L55.92 23.2H55.536L48.912 14.152L49.992 13.84V28H46.728ZM74.0779 28.288C72.7339 28.288 71.5579 27.984 70.5499 27.376C69.5419 26.768 68.7579 25.944 68.1979 24.904C67.6379 23.864 67.3579 22.712 67.3579 21.448C67.3579 20.136 67.6379 18.976 68.1979 17.968C68.7739 16.944 69.5499 16.136 70.5259 15.544C71.5179 14.952 72.6219 14.656 73.8379 14.656C74.8619 14.656 75.7579 14.824 76.5259 15.16C77.3099 15.496 77.9739 15.96 78.5179 16.552C79.0619 17.144 79.4779 17.824 79.7659 18.592C80.0539 19.344 80.1979 20.16 80.1979 21.04C80.1979 21.264 80.1819 21.496 80.1499 21.736C80.1339 21.976 80.0939 22.184 80.0299 22.36H69.9499V19.96H78.2539L76.7659 21.088C76.9099 20.352 76.8699 19.696 76.6459 19.12C76.4379 18.544 76.0859 18.088 75.5899 17.752C75.1099 17.416 74.5259 17.248 73.8379 17.248C73.1819 17.248 72.5979 17.416 72.0859 17.752C71.5739 18.072 71.1819 18.552 70.9099 19.192C70.6539 19.816 70.5579 20.576 70.6219 21.472C70.5579 22.272 70.6619 22.984 70.9339 23.608C71.2219 24.216 71.6379 24.688 72.1819 25.024C72.7419 25.36 73.3819 25.528 74.1019 25.528C74.8219 25.528 75.4299 25.376 75.9259 25.072C76.4379 24.768 76.8379 24.36 77.1259 23.848L79.6699 25.096C79.4139 25.72 79.0139 26.272 78.4699 26.752C77.9259 27.232 77.2779 27.608 76.5259 27.88C75.7899 28.152 74.9739 28.288 74.0779 28.288ZM88.6532 28.288C87.3892 28.288 86.2612 27.992 85.2692 27.4C84.2772 26.792 83.4932 25.968 82.9172 24.928C82.3412 23.888 82.0532 22.736 82.0532 21.472C82.0532 20.192 82.3412 19.04 82.9172 18.016C83.4932 16.992 84.2772 16.176 85.2692 15.568C86.2772 14.96 87.3972 14.656 88.6292 14.656C89.6212 14.656 90.5012 14.856 91.2692 15.256C92.0532 15.64 92.6692 16.184 93.1172 16.888L92.6372 17.536V9.832H95.7812V28H92.8052V25.48L93.1412 26.104C92.6932 26.808 92.0692 27.352 91.2692 27.736C90.4692 28.104 89.5972 28.288 88.6532 28.288ZM88.9892 25.408C89.7092 25.408 90.3412 25.24 90.8852 24.904C91.4292 24.568 91.8532 24.104 92.1572 23.512C92.4772 22.92 92.6372 22.24 92.6372 21.472C92.6372 20.72 92.4772 20.048 92.1572 19.456C91.8532 18.848 91.4292 18.376 90.8852 18.04C90.3412 17.704 89.7092 17.536 88.9892 17.536C88.2852 17.536 87.6532 17.712 87.0932 18.064C86.5332 18.4 86.0932 18.864 85.7732 19.456C85.4692 20.032 85.3172 20.704 85.3172 21.472C85.3172 22.24 85.4692 22.92 85.7732 23.512C86.0932 24.104 86.5332 24.568 87.0932 24.904C87.6532 25.24 88.2852 25.408 88.9892 25.408ZM107.37 28.288C106.09 28.288 104.906 28.056 103.818 27.592C102.746 27.128 101.802 26.48 100.986 25.648C100.186 24.816 99.5622 23.84 99.1142 22.72C98.6662 21.6 98.4422 20.376 98.4422 19.048C98.4422 17.72 98.6582 16.496 99.0902 15.376C99.5382 14.24 100.162 13.264 100.962 12.448C101.778 11.616 102.73 10.976 103.818 10.528C104.906 10.064 106.09 9.832 107.37 9.832C108.65 9.832 109.794 10.048 110.802 10.48C111.826 10.912 112.69 11.488 113.394 12.208C114.098 12.912 114.602 13.688 114.906 14.536L111.978 15.904C111.642 15.008 111.074 14.272 110.274 13.696C109.474 13.104 108.506 12.808 107.37 12.808C106.25 12.808 105.258 13.072 104.394 13.6C103.546 14.128 102.882 14.856 102.402 15.784C101.938 16.712 101.706 17.8 101.706 19.048C101.706 20.296 101.938 21.392 102.402 22.336C102.882 23.264 103.546 23.992 104.394 24.52C105.258 25.048 106.25 25.312 107.37 25.312C108.506 25.312 109.474 25.024 110.274 24.448C111.074 23.856 111.642 23.112 111.978 22.216L114.906 23.584C114.602 24.432 114.098 25.216 113.394 25.936C112.69 26.64 111.826 27.208 110.802 27.64C109.794 28.072 108.65 28.288 107.37 28.288ZM121.018 28.288C120.106 28.288 119.314 28.136 118.642 27.832C117.97 27.528 117.45 27.096 117.082 26.536C116.714 25.96 116.53 25.296 116.53 24.544C116.53 23.824 116.69 23.184 117.01 22.624C117.33 22.048 117.826 21.568 118.498 21.184C119.17 20.8 120.018 20.528 121.042 20.368L125.314 19.672V22.072L121.642 22.696C121.018 22.808 120.554 23.008 120.25 23.296C119.946 23.584 119.794 23.96 119.794 24.424C119.794 24.872 119.962 25.232 120.298 25.504C120.65 25.76 121.082 25.888 121.594 25.888C122.25 25.888 122.826 25.752 123.322 25.48C123.834 25.192 124.226 24.8 124.498 24.304C124.786 23.808 124.93 23.264 124.93 22.672V19.312C124.93 18.752 124.706 18.288 124.258 17.92C123.826 17.536 123.25 17.344 122.53 17.344C121.858 17.344 121.258 17.528 120.73 17.896C120.218 18.248 119.842 18.72 119.602 19.312L117.034 18.064C117.29 17.376 117.69 16.784 118.234 16.288C118.794 15.776 119.45 15.376 120.202 15.088C120.954 14.8 121.77 14.656 122.65 14.656C123.722 14.656 124.666 14.856 125.482 15.256C126.298 15.64 126.93 16.184 127.378 16.888C127.842 17.576 128.074 18.384 128.074 19.312V28H125.098V25.768L125.77 25.72C125.434 26.28 125.034 26.752 124.57 27.136C124.106 27.504 123.578 27.792 122.986 28C122.394 28.192 121.738 28.288 121.018 28.288ZM130.98 28V14.944H133.932V17.848L133.692 17.416C133.996 16.44 134.468 15.76 135.108 15.376C135.764 14.992 136.548 14.8 137.46 14.8H138.228V17.584H137.1C136.204 17.584 135.484 17.864 134.94 18.424C134.396 18.968 134.124 19.736 134.124 20.728V28H130.98ZM146.148 28.288C144.804 28.288 143.628 27.984 142.62 27.376C141.612 26.768 140.828 25.944 140.268 24.904C139.708 23.864 139.428 22.712 139.428 21.448C139.428 20.136 139.708 18.976 140.268 17.968C140.844 16.944 141.62 16.136 142.596 15.544C143.588 14.952 144.692 14.656 145.908 14.656C146.932 14.656 147.828 14.824 148.596 15.16C149.38 15.496 150.044 15.96 150.588 16.552C151.132 17.144 151.548 17.824 151.836 18.592C152.124 19.344 152.268 20.16 152.268 21.04C152.268 21.264 152.252 21.496 152.22 21.736C152.204 21.976 152.164 22.184 152.1 22.36H142.02V19.96H150.324L148.836 21.088C148.98 20.352 148.94 19.696 148.716 19.12C148.508 18.544 148.156 18.088 147.66 17.752C147.18 17.416 146.596 17.248 145.908 17.248C145.252 17.248 144.668 17.416 144.156 17.752C143.644 18.072 143.252 18.552 142.98 19.192C142.724 19.816 142.628 20.576 142.692 21.472C142.628 22.272 142.732 22.984 143.004 23.608C143.292 24.216 143.708 24.688 144.252 25.024C144.812 25.36 145.452 25.528 146.172 25.528C146.892 25.528 147.5 25.376 147.996 25.072C148.508 24.768 148.908 24.36 149.196 23.848L151.74 25.096C151.484 25.72 151.084 26.272 150.54 26.752C149.996 27.232 149.348 27.608 148.596 27.88C147.86 28.152 147.044 28.288 146.148 28.288Z" fill="white"/>
<defs>
<filter id="filter0_dd_13001_399" x="0" y="0" width="38" height="38" filterUnits="userSpaceOnUse" color-interpolation-filters="sRGB">
<feFlood flood-opacity="0" result="BackgroundImageFix"/>
<feColorMatrix in="SourceAlpha" type="matrix" values="0 0 0 0 0 0 0 0 0 0 0 0 0 0 0 0 0 0 127 0" result="hardAlpha"/>
<feOffset dy="1"/>
<feGaussianBlur stdDeviation="1"/>
<feColorMatrix type="matrix" values="0 0 0 0 0.0627451 0 0 0 0 0.0941176 0 0 0 0 0.156863 0 0 0 0.06 0"/>
<feBlend mode="normal" in2="BackgroundImageFix" result="effect1_dropShadow_13001_399"/>
<feColorMatrix in="SourceAlpha" type="matrix" values="0 0 0 0 0 0 0 0 0 0 0 0 0 0 0 0 0 0 127 0" result="hardAlpha"/>
<feOffset dy="1"/>
<feGaussianBlur stdDeviation="1.5"/>
<feColorMatrix type="matrix" values="0 0 0 0 0.0627451 0 0 0 0 0.0941176 0 0 0 0 0.156863 0 0 0 0.1 0"/>
<feBlend mode="normal" in2="effect1_dropShadow_13001_399" result="effect2_dropShadow_13001_399"/>
<feBlend mode="normal" in="SourceGraphic" in2="effect2_dropShadow_13001_399" result="shape"/>
</filter>
<linearGradient id="paint0_linear_13001_399" x1="19" y1="2" x2="19" y2="34" gradientUnits="userSpaceOnUse">
<stop stop-color="white"/>
<stop offset="1" stop-color="#D0D5DD"/>
</linearGradient>
<linearGradient id="paint1_linear_13001_399" x1="10.1989" y1="24.2137" x2="27.8347" y2="6.57791" gradientUnits="userSpaceOnUse">
<stop stop-color="#0076C1"/>
<stop offset="0.0737" stop-color="#0B82C6"/>
<stop offset="0.2766" stop-color="#269ED3"/>
<stop offset="0.4546" stop-color="#36AFDA"/>
<stop offset="0.587" stop-color="#3CB5DD"/>
</linearGradient>
<linearGradient id="paint2_linear_13001_399" x1="10.1388" y1="24.2537" x2="27.8274" y2="6.56509" gradientUnits="userSpaceOnUse">
<stop stop-color="#00A482"/>
<stop offset="1" stop-color="#79DD83"/>
</linearGradient>
<linearGradient id="paint3_linear_13001_399" x1="24.8608" y1="13.5073" x2="28.5288" y2="10.1132" gradientUnits="userSpaceOnUse">
<stop stop-color="#00A482"/>
<stop offset="1" stop-color="#79DD83"/>
</linearGradient>
</defs>
</svg>
